<svg xmlns="http://www.w3.org/2000/svg" viewBox="0 0 444 444"><path d="M338.5 164.3c-3 .2-5.6 2.2-7.2 5.6l-29.4 62c-.8 1.7-.1 3.8 1.6 4.6 1.7.8 3.8.1 4.6-1.6l29.4-62c.6-1.3 1.2-1.6 1.3-1.6.1 0 .7.2 1.5 1.5 2.1 3.3 2.5 9.3.8 12.8l-28.5 60.1c-1.5 3.2-3.5 5.1-5.6 5.2-2 .1-4.3-1.5-6.2-4.5-4.8-7.6-5.6-20.8-1.8-28.9l32.4-68.4c.5-1.1.4-2.3-.2-3.3-.6-1-1.7-1.6-2.9-1.6l-145.3.4c-1.3 0-2.5.8-3.1 2l-32.8 69.3c-4.7 9.8-3.7 24.7 2.1 33.9l1 1.6c5.8 9.2 19 16.4 29.8 16.3l114-.5c1.9 0 3.4-1.6 3.4-3.5s-1.6-3.4-3.5-3.4l-114 .5c-8.5 0-19.4-6-24-13.1l-1-1.6c-4.5-7.1-5.3-19.6-1.7-27.3l31.9-67.3 133.8-.4-29.9 63.5c-.9 10.1.1 25.7 6.2 35.3 3.3 5.2 7.8 8 12.4 7.7 1.9-.1 3.7-.7 5.3-1.7 2.4-1.5 4.5-4.1 6.1-7.4l28.5-60.1c2.7-5.6 2.1-14.2-1.2-19.4-2-3.2-4.9-4.9-7.8-4.7z"/><path d="M295.5 176.6c1-.6 1.7-1.6 1.8-2.8.1-1.9-1.4-3.5-3.3-3.6l-94.2-5.2c-1.9-.1-3.5 1.4-3.6 3.3-.1 1.9 1.4 3.5 3.3 3.6l94.2 5.2c.6 0 1.3-.2 1.8-.5zm-7.6 14.7c1-.6 1.7-1.6 1.8-2.8.1-1.9-1.4-3.5-3.3-3.6l-39.8-2.1c-1.9-.1-3.5 1.4-3.6 3.3-.1 1.9 1.4 3.5 3.3 3.6l39.8 2.1c.6 0 1.2-.2 1.8-.5zm-49.2 6.2c-1.9-.1-3.5 1.4-3.6 3.3-.1 1.9 1.4 3.5 3.3 3.6l40 2.1c.7 0 1.3-.1 1.9-.4 1-.6 1.7-1.6 1.8-2.8.1-1.9-1.4-3.5-3.3-3.6l-40.1-2.2zm-50.3-15.9l-16.3 29.8c-.6 1-.6 2.3 0 3.3s1.7 1.7 2.8 1.8l40.3 2c.7 0 1.3-.1 1.8-.4.6-.3 1.1-.8 1.4-1.4l4.3-8c.9-1.7.3-3.8-1.4-4.7-1.7-.9-3.8-.3-4.7 1.4l-3.2 6.1-32.6-1.6 12.6-23 32.2 1.7-1.8 3.3c-.9 1.7-.3 3.8 1.4 4.7 1.7.9 3.8.3 4.7-1.4l4.3-8.1c.6-1 .5-2.3 0-3.3-.6-1-1.6-1.7-2.8-1.8l-39.8-2.1c-1.3-.2-2.6.5-3.2 1.7zm86 36.3c.1-1.9-1.4-3.5-3.3-3.6l-40.3-2c-1.9-.1-3.5 1.4-3.6 3.3-.1 1.9 1.4 3.5 3.3 3.6l40.3 2c.7 0 1.3-.1 1.8-.4 1-.6 1.7-1.6 1.8-2.9zm-108.7 9.8c-.1 1.9 1.4 3.5 3.3 3.6l99.4 4.9c.7 0 1.3-.1 1.8-.4 1-.6 1.7-1.6 1.8-2.9.1-1.9-1.4-3.5-3.3-3.6l-99.4-4.9c-1.9-.1-3.5 1.4-3.6 3.3z"/><path d="M207 270.3H44.6l.6-99.3 2.8-17c.8-2.6 6.3-12.2 7.5-14.6 7.6-14.5 19.1-26.5 33.1-34.8 3.3-2 6.9-3.4 10.7-4.5L118 93l139-.3-35 35-15 53.6v89z" fill="#fff"/><ellipse transform="matrix(.00865 -1 1 .00865 -67.073 313.858)" cx="124.8" cy="190.8" rx="25.6" ry="23"/><ellipse transform="matrix(.00865 -1 1 .00865 -67.38 314.132)" cx="124.7" cy="191" rx="22.2" ry="20" fill="#565656"/><path d="M310.7 77.6H133.4c-57.2 0-103.7 46.5-103.7 103.7v129.5c0 4.1 3.4 7.5 7.5 7.5h140.7v118.1c0 4.1 3.4 7.5 7.5 7.5h36.4c4.1 0 7.5-3.4 7.5-7.5V318.3h177.5c4.1 0 7.5-3.4 7.5-7.5V181.3c0-57.1-46.5-103.7-103.6-103.7zM44.6 181.3c0-48.9 39.8-88.7 88.7-88.7h10.1s11.7.2 25.5.2 24.8-.2 24.8-.2H257c-30 18.2-50 51.1-50 88.7V270H44.6v-88.7zM214.3 429h-21.4V318.3h21.4V429zm185-125.7H44.6V285h354.7v18.3zm0-33.3h-32.5c-4.1.6-8.3.1-12.5 0-4.7-.1-9.6.2-14.4 0H222v-41.5l.2.2c-.2-4.5-.2-9 0-13.5.1-2.1.1-4.2.2-6.3-.1-.3-.1-.6-.1-.9v-.5l-.3-.3v-25.9c0-8.5 1.2-16.7 3.5-24.5 0-2.4.9-4.8 1.8-7.1 1-2.5 2.1-5.1 3.7-7.4.2-.7.6-1.3 1-1.8 14.8-28.4 44.5-47.8 78.7-47.8 48.9 0 88.7 39.8 88.7 88.7V270z"/><path d="M83.3 51.7H68.5c-7.9 0-14.3-5.2-14.3-11.5s6.4-11.5 14.3-11.5h57.3c6.7 0 12.2 4.4 12.2 9.8v153.7c0 5.4-5.5 9.8-12.2 9.8-6.7 0-12.2-4.4-12.2-9.8V76.1c0-13.5-13.6-24.4-30.3-24.4z"/></svg>