<?xml version="1.0" encoding="utf-8"?>
<!-- Generator: Adobe Illustrator 22.0.1, SVG Export Plug-In . SVG Version: 6.00 Build 0)  -->
<svg version="1.1" id="Capa_1" xmlns="http://www.w3.org/2000/svg" xmlns:xlink="http://www.w3.org/1999/xlink" x="0px" y="0px"
	 viewBox="0 0 444 444" style="enable-background:new 0 0 444 444;" xml:space="preserve">
<style type="text/css">
	.st0{fill:#FFFFFF;}
	.st1{fill:#565656;}
</style>
<g id="newspeper">
	<path d="M338.5,164.3c-3,0.2-5.6,2.2-7.2,5.6l-29.4,62c-0.8,1.7-0.1,3.8,1.6,4.6c1.7,0.8,3.8,0.1,4.6-1.6l29.4-62
		c0.6-1.3,1.2-1.6,1.3-1.6c0.1,0,0.7,0.2,1.5,1.5c2.1,3.3,2.5,9.3,0.8,12.8l-28.5,60.1c-1.5,3.2-3.5,5.1-5.6,5.2
		c-2,0.1-4.3-1.5-6.2-4.5c-4.8-7.6-5.6-20.8-1.8-28.9l32.4-68.4c0.5-1.1,0.4-2.3-0.2-3.3c-0.6-1-1.7-1.6-2.9-1.6L183,144.6
		c-1.3,0-2.5,0.8-3.1,2l-32.8,69.3c-4.7,9.8-3.7,24.7,2.1,33.9l1,1.6c5.8,9.2,19,16.4,29.8,16.3l114-0.5c1.9,0,3.4-1.6,3.4-3.5
		c0-1.9-1.6-3.4-3.5-3.4l-114,0.5c-8.5,0-19.4-6-24-13.1l-1-1.6c-4.5-7.1-5.3-19.6-1.7-27.3l31.9-67.3l133.8-0.4L289,214.6
		c-0.9,10.1,0.1,25.7,6.2,35.3c3.3,5.2,7.8,8,12.4,7.7c1.9-0.1,3.7-0.7,5.3-1.7c2.4-1.5,4.5-4.1,6.1-7.4l28.5-60.1
		c2.7-5.6,2.1-14.2-1.2-19.4C344.3,165.8,341.4,164.1,338.5,164.3z"/>
	<path d="M295.5,176.6c1-0.6,1.7-1.6,1.8-2.8c0.1-1.9-1.4-3.5-3.3-3.6l-94.2-5.2c-1.9-0.1-3.5,1.4-3.6,3.3c-0.1,1.9,1.4,3.5,3.3,3.6
		l94.2,5.2C294.3,177.1,295,176.9,295.5,176.6z"/>
	<path d="M287.9,191.3c1-0.6,1.7-1.6,1.8-2.8c0.1-1.9-1.4-3.5-3.3-3.6l-39.8-2.1c-1.9-0.1-3.5,1.4-3.6,3.3c-0.1,1.9,1.4,3.5,3.3,3.6
		l39.8,2.1C286.7,191.8,287.3,191.6,287.9,191.3z"/>
	<path d="M238.7,197.5c-1.9-0.1-3.5,1.4-3.6,3.3c-0.1,1.9,1.4,3.5,3.3,3.6l40,2.1c0.7,0,1.3-0.1,1.9-0.4c1-0.6,1.7-1.6,1.8-2.8
		c0.1-1.9-1.4-3.5-3.3-3.6L238.7,197.5z"/>
	<path d="M188.4,181.6l-16.3,29.8c-0.6,1-0.6,2.3,0,3.3c0.6,1,1.7,1.7,2.8,1.8l40.3,2c0.7,0,1.3-0.1,1.8-0.4
		c0.6-0.3,1.1-0.8,1.4-1.4l4.3-8c0.9-1.7,0.3-3.8-1.4-4.7c-1.7-0.9-3.8-0.3-4.7,1.4l-3.2,6.1l-32.6-1.6l12.6-23l32.2,1.7l-1.8,3.3
		c-0.9,1.7-0.3,3.8,1.4,4.7c1.7,0.9,3.8,0.3,4.7-1.4l4.3-8.1c0.6-1,0.5-2.3,0-3.3c-0.6-1-1.6-1.7-2.8-1.8l-39.8-2.1
		C190.3,179.7,189,180.4,188.4,181.6z"/>
	<path d="M274.4,217.9c0.1-1.9-1.4-3.5-3.3-3.6l-40.3-2c-1.9-0.1-3.5,1.4-3.6,3.3c-0.1,1.9,1.4,3.5,3.3,3.6l40.3,2
		c0.7,0,1.3-0.1,1.8-0.4C273.6,220.2,274.3,219.2,274.4,217.9z"/>
	<path d="M165.7,227.7c-0.1,1.9,1.4,3.5,3.3,3.6l99.4,4.9c0.7,0,1.3-0.1,1.8-0.4c1-0.6,1.7-1.6,1.8-2.9c0.1-1.9-1.4-3.5-3.3-3.6
		l-99.4-4.9C167.4,224.3,165.8,225.8,165.7,227.7z"/>
</g>
<g id="wol">
	<path class="st0" d="M207,270.3H44.6l0.6-99.3l2.8-17c0.8-2.6,6.3-12.2,7.5-14.6c7.6-14.5,19.1-26.5,33.1-34.8
		c3.3-2,6.9-3.4,10.7-4.5L118,93l139-0.3l-35,35l-15,53.6V270.3z"/>
	<ellipse transform="matrix(8.654567e-03 -1 1 8.654567e-03 -67.0726 313.858)" cx="124.8" cy="190.8" rx="25.6" ry="23"/>
	
		<ellipse transform="matrix(8.654567e-03 -1 1 8.654567e-03 -67.3802 314.1318)" class="st1" cx="124.7" cy="191" rx="22.2" ry="20"/>
</g>
<path id="box" d="M310.7,77.6l-116.9,0l0,0l-60.4,0c-57.2,0-103.7,46.5-103.7,103.7v129.5c0,4.1,3.4,7.5,7.5,7.5h140.7v118.1
	c0,4.1,3.4,7.5,7.5,7.5h36.4c4.1,0,7.5-3.4,7.5-7.5V318.3h177.5c4.1,0,7.5-3.4,7.5-7.5V181.3C414.3,124.2,367.8,77.6,310.7,77.6z
	 M44.6,181.3c0-48.9,39.8-88.7,88.7-88.7h10.1c0,0,11.7,0.2,25.5,0.2s24.8-0.2,24.8-0.2H257c-30,18.2-50,51.1-50,88.7V270H44.6
	V181.3z M214.3,429h-21.4V318.3h21.4V429z M399.3,303.3H44.6V285l354.7,0V303.3z M399.3,270h-32.5c-4.1,0.6-8.3,0.1-12.5,0
	c-4.7-0.1-9.6,0.2-14.4,0H222v-41.5l0.2,0.2c-0.2-4.5-0.2-9,0-13.5c0.1-2.1,0.1-4.2,0.2-6.3c-0.1-0.3-0.1-0.6-0.1-0.9
	c0-0.2,0-0.4,0-0.5l-0.3-0.3v-25.9h0c0-8.5,1.2-16.7,3.5-24.5c0-2.4,0.9-4.8,1.8-7.1c1-2.5,2.1-5.1,3.7-7.4c0.2-0.7,0.6-1.3,1-1.8
	c14.8-28.4,44.5-47.8,78.7-47.8c48.9,0,88.7,39.8,88.7,88.7V270z"/>
<g id="flag">
	<path d="M83.3,51.7H68.5c-7.9,0-14.3-5.2-14.3-11.5s6.4-11.5,14.3-11.5h57.3c6.7,0,12.2,4.4,12.2,9.8v153.7c0,5.4-5.5,9.8-12.2,9.8
		c-6.7,0-12.2-4.4-12.2-9.8V76.1C113.6,62.6,100,51.7,83.3,51.7z"/>
</g>
</svg>
